<svg xmlns="http://www.w3.org/2000/svg" version="1.1" xmlns:xlink="http://www.w3.org/1999/xlink" xmlns:svgjs="http://svgjs.com/svgjs" width="1080" height="1920" preserveAspectRatio="none" viewBox="0 0 1080 1920"><g mask="url(&quot;#SvgjsMask1084&quot;)" fill="none"><rect width="1080" height="1920" x="0" y="0" fill="#1e3266"></rect><path d="M1134 1920L0 1920 L0 1503.22Q-32.13 1381.09, 90 1348.95Q125.75 1294.7, 180 1330.46Q253.42 1313.88, 270 1387.3Q348.35 1375.64, 360 1453.99Q370.11 1410.1, 414 1420.2Q448.77 1364.97, 504 1399.75Q525.61 1367.36, 558 1388.97Q554.99 1295.96, 648 1292.95Q716.79 1307.74, 702 1376.54Q752.49 1373.03, 756 1423.52Q824.08 1437.6, 810 1505.67Q764.34 1370.01, 900 1324.36Q933.07 1267.43, 990 1300.5Q1011.49 1267.99, 1044 1289.48Q1108.29 1263.77, 1134 1328.06z" fill="#182f5d"></path><path d="M1134 1920L0 1920 L0 1661.15Q1.99 1573.14, 90 1575.13Q60.02 1491.15, 144 1461.17Q247.97 1511.14, 198 1615.11Q235.63 1598.73, 252 1636.36Q260.4 1554.76, 342 1563.17Q381.53 1512.7, 432 1552.24Q428.03 1494.27, 486 1490.3Q515.76 1430.06, 576 1459.82Q642.75 1436.57, 666 1503.32Q779.65 1526.97, 756 1640.63Q743.75 1538.38, 846 1526.13Q867.51 1457.64, 936 1479.15Q956.01 1445.16, 990 1465.18Q1065.23 1450.41, 1080 1525.63Q1158.07 1549.7, 1134 1627.77z" fill="#25467d"></path><path d="M1116 1920L0 1920 L0 1653.49Q56.99 1656.48, 54 1713.47Q46.2 1615.67, 144 1607.87Q199.95 1609.82, 198 1665.76Q321.43 1699.19, 288 1822.62Q270.37 1750.99, 342 1733.36Q321.96 1623.32, 432 1603.29Q574.47 1655.76, 522 1798.22Q481.02 1667.24, 612 1626.25Q690.24 1614.49, 702 1692.74Q793 1693.74, 792 1784.75Q786.3 1725.05, 846 1719.36Q865.35 1648.71, 936 1668.06Q971.1 1613.16, 1026 1648.26Q1101.11 1633.37, 1116 1708.47z" fill="#356cb1"></path><path d="M1116 1920L0 1920 L0 1884.44Q-8.26 1822.18, 54 1813.92Q63.76 1769.68, 108 1779.43Q161.6 1743.03, 198 1796.62Q267.12 1775.74, 288 1844.86Q306.84 1809.69, 342 1828.53Q415.97 1812.5, 432 1886.47Q471.76 1872.23, 486 1911.99Q527.06 1899.05, 540 1940.12Q585.31 1931.43, 594 1976.74Q611.85 1940.59, 648 1958.43Q616.36 1836.79, 738 1805.15Q763.98 1741.13, 828 1767.12Q863.77 1748.89, 882 1784.66Q981.44 1794.11, 972 1893.55Q1027.59 1859.13, 1062 1914.72Q1113.58 1912.3, 1116 1963.88z" fill="white"></path></g><defs><mask id="SvgjsMask1084"><rect width="1080" height="1920" fill="#ffffff"></rect></mask></defs></svg>